<?xml version="1.0" encoding="UTF-8"?>
<svg version="1.1" xmlns="http://www.w3.org/2000/svg" width="512" height="512">
<path d="M0 0 C1.52753906 1.22203125 1.52753906 1.22203125 3.0859375 2.46875 C17.3342619 14.04606635 30.19230197 27.16123691 41 42 C41.48275391 42.64904297 41.96550781 43.29808594 42.46289062 43.96679688 C82.71119521 98.1650915 99.16439967 167.50590262 89.54345703 234.16308594 C86.11144526 256.4299519 80.25817176 278.41039793 71 299 C70.65243652 299.78117187 70.30487305 300.56234375 69.94677734 301.3671875 C59.42794615 324.79974248 45.92394897 345.72068916 29 365 C28.26136719 365.85078125 27.52273438 366.7015625 26.76171875 367.578125 C17.30726339 378.29432669 7.28592163 388.2185385 -4 397 C-5.43859375 398.16402344 -5.43859375 398.16402344 -6.90625 399.3515625 C-58.97340434 440.76861709 -127.78333939 458.90123079 -193.609375 451.6875 C-239.14120594 446.14047491 -283.87342539 429.65759071 -320 401 C-320.85851562 400.33355469 -321.71703125 399.66710937 -322.6015625 398.98046875 C-374.56193447 358.2004245 -406.62349805 296.91979707 -414.6875 231.67578125 C-422.17459195 164.28579653 -403.28764613 96.66940749 -361.76171875 43.11328125 C-349.17903626 27.44638885 -335.00299202 12.20824459 -319 0 C-318.45827148 -0.41813965 -317.91654297 -0.8362793 -317.35839844 -1.26708984 C-295.16346264 -18.32719052 -270.50597708 -31.97086096 -244 -41 C-243.10087891 -41.30921387 -242.20175781 -41.61842773 -241.27539062 -41.93701172 C-160.57892772 -69.24988036 -66.32453547 -54.15646824 0 0 Z M-322.14233398 39.90795898 C-328.21510339 45.92391547 -333.80020585 52.20584388 -339 59 C-339.43022461 59.55913086 -339.86044922 60.11826172 -340.30371094 60.69433594 C-347.23440109 69.74997864 -353.36867024 79.08928046 -359 89 C-359.33596191 89.57621094 -359.67192383 90.15242188 -360.01806641 90.74609375 C-376.46210938 119.03209259 -386.92573335 154.24858774 -387.23828125 187.0546875 C-387.24802979 187.90555435 -387.25777832 188.7564212 -387.26782227 189.6330719 C-387.44194131 208.78257504 -387.16773114 227.21610083 -383 246 C-382.81808105 246.84385254 -382.63616211 247.68770508 -382.44873047 248.55712891 C-371.47067118 298.03197521 -342.37244852 345.1016194 -302 376 C-301.44086914 376.43022461 -300.88173828 376.86044922 -300.30566406 377.30371094 C-291.25002136 384.23440109 -281.91071954 390.36867024 -272 396 C-271.42378906 396.33596191 -270.84757812 396.67192383 -270.25390625 397.01806641 C-221.64958557 425.27414966 -160.49046778 431.6401783 -106.41235352 417.98168945 C-59.14398249 405.28898199 -14.95299419 378.13718752 15 339 C15.43022461 338.44086914 15.86044922 337.88173828 16.30371094 337.30566406 C23.23279478 328.25212017 29.38198199 318.91645504 35 309 C35.3412793 308.40783691 35.68255859 307.81567383 36.03417969 307.20556641 C47.24075317 287.66108777 54.52972604 266.16374692 59.25 244.1875 C59.40114258 243.48423584 59.55228516 242.78097168 59.70800781 242.05639648 C62.57074493 227.90588043 63.40701133 214.07837204 63.375 199.6875 C63.37445618 198.7651355 63.37391235 197.842771 63.37335205 196.89245605 C63.20893473 136.05278498 38.05004284 80.2024632 -4.5625 37.1875 C-10.07238343 31.72958894 -15.8375345 26.71634026 -22 22 C-22.55913086 21.56977539 -23.11826172 21.13955078 -23.69433594 20.69628906 C-32.74787983 13.76720522 -42.08354496 7.61801801 -52 2 C-52.59216309 1.6587207 -53.18432617 1.31744141 -53.79443359 0.96582031 C-76.0720857 -11.8079226 -100.76601381 -19.70750902 -126 -24 C-127.26070313 -24.21527344 -128.52140625 -24.43054688 -129.8203125 -24.65234375 C-200.70618993 -35.32417365 -271.27558387 -9.55375358 -322.14233398 39.90795898 Z " fill="#000000" transform="translate(418,57)"/>
<path d="M0 0 C6.22038938 4.38254706 8.82240481 8.48060753 11.04980469 15.84008789 C11.26072628 16.53430627 11.47164787 17.22852465 11.68896103 17.94377995 C14.27319887 26.5331626 16.66892609 35.17801431 19.06317902 43.82183647 C19.90984021 46.87795316 20.75989041 49.9331101 21.61077881 52.98805237 C23.71759413 60.55440664 25.81956236 68.12210462 27.92016602 75.69018555 C29.70815103 82.13186265 31.49868632 88.57281838 33.29308319 95.01271248 C34.1316073 98.02618609 34.96625584 101.04071648 35.80084229 104.05528259 C36.31005461 105.88383667 36.81946329 107.71233608 37.32910156 109.54077148 C37.56077026 110.38165817 37.79243896 111.22254486 38.03112793 112.08891296 C38.81775141 115.81136342 38.81775141 115.81136342 40.75 118.9375 C41.02260147 117.92812881 41.29520294 116.91875763 41.57606506 115.87879944 C44.17744336 106.24718631 46.78005505 96.61590716 49.38379765 86.9849329 C50.72154797 82.03658387 52.05890113 77.08812831 53.39526367 72.1394043 C53.91650191 70.20947212 54.43774213 68.27954047 54.95898438 66.34960938 C55.21490042 65.40177771 55.47081646 64.45394604 55.73448753 63.4773922 C57.00532114 58.77327971 58.27993603 54.07024699 59.56240845 49.36929321 C60.0561382 47.55887102 60.54982197 45.74843629 61.04345703 43.93798828 C61.28036066 43.06944529 61.51726429 42.20090229 61.76134682 41.30603981 C63.15582456 36.17655639 64.50231449 31.0380026 65.81201172 25.88623047 C66.11392929 24.72860703 66.41584686 23.57098358 66.72691345 22.37828064 C67.25436217 20.35222145 67.76533059 18.3217417 68.25367737 16.28590393 C69.96406766 9.82769262 72.81414473 5.4650657 77.75 0.9375 C82.7465646 -1.91016614 88.14888887 -1.574696 93.75 -1.0625 C99.24914128 0.70137551 102.49600019 4.31040435 105.75 8.9375 C106.69011564 11.56146558 107.28968559 13.69137298 107.75878906 16.38671875 C107.98484015 17.5260511 107.98484015 17.5260511 108.21545792 18.68840027 C108.7513801 21.43397705 109.2504762 24.18507404 109.75 26.9375 C110.18389892 29.24057749 110.6188214 31.5434623 111.05456543 33.84619141 C112.47033976 41.39209253 113.84163276 48.94568153 115.20380306 56.50141907 C115.61312999 58.77081852 116.02343766 61.04003855 116.43405914 63.3092041 C117.87087416 71.24987616 119.30367998 79.19126017 120.73291016 87.13330078 C122.05913943 94.50231103 123.39469354 101.86959122 124.73441482 109.23615932 C125.89144477 115.60069039 127.04171819 121.96641915 128.18685746 128.33310032 C128.86791321 132.11887513 129.5516563 135.90411386 130.24236298 139.68814087 C130.89035847 143.23936737 131.52988251 146.79201975 132.16313744 150.3459034 C132.50556841 152.25569837 132.85656719 154.16395105 133.207901 156.0721283 C136.55097038 174.98437049 136.55097038 174.98437049 131.75 181.9375 C127.07391427 186.2628793 123.31352168 187.31820933 117.09765625 187.20703125 C113.22745502 186.76269866 110.65838651 185.49426969 107.75 182.9375 C104.02496158 177.43575305 102.74966168 171.3866776 101.64355469 164.94140625 C101.46740631 163.97463455 101.29125793 163.00786285 101.10977173 162.01179504 C100.53542101 158.84317985 99.97854737 155.67176434 99.421875 152.5 C99.02510593 150.2916354 98.62724218 148.08346722 98.22833252 145.87548828 C97.18503545 140.08408669 96.15656982 134.29014762 95.13122559 128.49554443 C94.080846 122.57484455 93.01638502 116.65667903 91.953125 110.73828125 C89.87166854 99.14045085 87.8058801 87.53988946 85.75 75.9375 C85.42062439 77.16223526 85.09124878 78.38697052 84.75189209 79.64881897 C81.64355782 91.20159447 78.52489827 102.75153922 75.39616013 114.29880619 C73.78805318 120.23517363 72.1835748 126.17247201 70.58740234 132.11206055 C69.04630762 137.84616234 67.49566458 143.57760366 65.93842316 149.30734062 C65.34656648 151.49162564 64.75813127 153.67684077 64.17321014 155.86299324 C63.35210586 158.92952007 62.5187968 161.99248661 61.68261719 165.05493164 C61.44452835 165.95548782 61.20643951 166.85604401 60.96113586 167.78388977 C59.14769052 174.35105079 57.24119109 180.00555589 51.6875 184.3125 C45.93265241 187.49603271 39.85273948 188.11579542 33.4921875 186.2890625 C27.85513715 183.78132527 24.27987293 179.61434932 21.90533066 173.90744781 C21.18006746 171.668226 20.54280569 169.42139108 19.93505859 167.14746094 C19.69530807 166.29604019 19.45555756 165.44461945 19.20854187 164.56739807 C18.42508486 161.77243496 17.66168458 158.97241783 16.8984375 156.171875 C16.35348767 154.21248896 15.80729398 152.25344848 15.25991821 150.29473877 C13.8249356 145.1468949 12.40695367 139.99451785 10.99249268 134.84100342 C9.55741107 129.62420461 8.10610285 124.41192759 6.65625 119.19921875 C2.65226999 104.78837098 -1.32868365 90.37108767 -5.25 75.9375 C-6.18223921 81.30682027 -7.1136693 86.67627997 -8.04418945 92.04589844 C-8.85332999 96.71484961 -9.66468941 101.38340855 -10.47729492 106.05175781 C-12.53341735 117.88438541 -14.55547943 129.72078178 -16.48828125 141.57421875 C-17.01245897 144.75953629 -17.53749636 147.94471105 -18.06274414 151.12985229 C-18.39394122 153.15620971 -18.72049672 155.18333162 -19.04223633 157.21121216 C-19.49188708 160.04386517 -19.95728528 162.87353716 -20.42578125 165.703125 C-20.55157059 166.52491745 -20.67735992 167.3467099 -20.80696106 168.19340515 C-21.78819956 173.98781011 -23.30059024 180.28703559 -27.82905579 184.35650635 C-32.48805399 187.61428722 -37.76530088 187.8259306 -43.25 186.9375 C-48.09115976 184.60657123 -50.95301121 181.79651474 -53.25 176.9375 C-54.20566281 168.15592705 -52.40941095 159.39405242 -50.92675781 150.77075195 C-50.67635783 149.27486254 -50.426715 147.77884623 -50.17776489 146.28271484 C-49.50428508 142.25048405 -48.81937531 138.22027699 -48.13156986 134.19046807 C-47.55667349 130.81620816 -46.98729236 127.44102671 -46.41782451 124.0658471 C-45.07397821 116.10196045 -43.72064782 108.1397258 -42.36132812 100.1784668 C-40.96204319 91.98213308 -39.57886083 83.78319656 -38.20353436 75.58281165 C-37.01873131 68.5219096 -35.82394927 61.46274548 -34.62121081 54.40487641 C-33.90445112 50.19821672 -33.19142276 45.99101346 -32.48801422 41.78209877 C-31.82644901 37.82623002 -31.15239118 33.87268707 -30.46886826 29.92055511 C-30.22096619 28.47497714 -29.97738366 27.02865031 -29.73858261 25.58154106 C-26.91494314 8.50847023 -26.91494314 8.50847023 -20.8125 2.5625 C-14.20099598 -1.63016109 -7.50884669 -2.45481526 0 0 Z " fill="#000000" transform="translate(156.25,163.0625)"/>
<path d="M0 0 C0.99 0.33 1.98 0.66 3 1 C5.0399719 -0.36323743 5.0399719 -0.36323743 7 -2 C11.35250507 -3.45083502 15.58113755 -3.85342929 19.9375 -2.31640625 C24.35786483 -0.020484 26.54481996 2.57806549 29 7 C29.56002325 10.021161 29.53738875 12.97775036 29.50170898 16.04370117 C29.50981346 17.37913467 29.50981346 17.37913467 29.51808167 18.74154663 C29.53055592 21.67569559 29.51407978 24.60886034 29.49609375 27.54296875 C29.49624884 29.59312491 29.49773942 31.64328137 29.50050354 33.69343567 C29.50188719 37.9898475 29.48934032 42.2859254 29.46655273 46.58227539 C29.43825815 52.06513781 29.44088163 57.54744182 29.45364285 63.03034496 C29.46063174 67.2659626 29.45277272 71.50145339 29.44038582 75.73705482 C29.43589612 77.75707829 29.43551262 79.7771155 29.43945122 81.79714012 C29.45667434 98.41243938 28.22772508 114.43803395 16.375 127.375 C5.16780825 137.71843901 -7.29224155 138.58831033 -21.69140625 138.13623047 C-33.19505356 137.45739849 -45.11136808 132.54601791 -53 124 C-56.3181543 119.1833244 -56.74459258 114.68134339 -56 109 C-54.30835942 104.28121312 -52.13951382 101.79417183 -48 99 C-43.01380805 97.33793602 -38.69960314 97.32015874 -33.875 99.25 C-31.84128925 100.48791089 -29.84378033 101.78622937 -27.875 103.125 C-23.59571041 105.91584104 -20.07279594 106.1920211 -15 106.3125 C-13.453125 106.36857422 -13.453125 106.36857422 -11.875 106.42578125 C-8.29081179 105.89497077 -7.21167751 104.8065425 -5 102 C-3.20718016 97.75384774 -2.54738267 93.56152227 -2 89 C-3.794375 89.495 -3.794375 89.495 -5.625 90 C-19.19068422 92.93427025 -31.89526153 90.87091948 -43.8125 83.8125 C-54.30346404 76.61521072 -61.5491147 66.37561761 -64.375 53.875 C-66.56402335 39.70276633 -63.62758528 26.04998811 -55.09765625 14.40234375 C-41.09624576 -2.38415743 -20.32862334 -6.83523398 0 0 Z M-31.4375 34.75 C-34.01647799 40.11427423 -34.6248551 43.95186383 -32.875 49.6875 C-30.4463167 53.97817382 -27.96524923 56.91394122 -23.625 59.3125 C-19.02290565 60.51781043 -15.36261835 60.4905426 -10.875 58.875 C-6.93707682 56.30678923 -4.12887417 53.25774835 -2 49 C-1.45639554 44.04517906 -1.43562926 40.12874148 -3.6875 35.625 C-7.73997937 31.02488828 -10.96870787 28.2971855 -17.1875 27.6875 C-23.27295592 28.18630786 -27.38182902 30.1743712 -31.4375 34.75 Z " fill="#000000" transform="translate(380,212)"/>
</svg>
